<?xml version="1.0" encoding="UTF-8" standalone="no"?>
<svg
   viewBox="740.71 912.01 2621.13 2240.99"
   version="1.1"
   id="svg40"
   xmlns="http://www.w3.org/2000/svg">
  <g
     id="yaiol"
     fill="#1E1E1E">
    <path
       d="M3181.36 1785.91C3194.62 1788.12 3201.49 1805.34 3206.81 1816.34C3191.67 1831.57 3174.64 1838.49 3163.69 1860.72C3153.94 1880.52 3153.15 1902.61 3152.22 1924.62C3150.65 1961.75 3151.31 2000.19 3151.3 2037.47L3151.25 2223.72L3151.26 2440.82C3151.27 2483.05 3148.07 2552.91 3156.16 2594.41C3169.53 2631 3201.7 2629.51 3232.16 2637.59C3242.69 2640.38 3236.93 2667.91 3233.42 2675.12C3222.69 2685.59 3156.44 2680.06 3137.01 2679.74C3097.08 2679.22 3057.14 2680.99 3017.41 2685.04C2979.21 2689.04 2999.35 2638.03 3001.02 2617.26C3009.82 2496.49 3008.66 2374.58 3007.94 2253.43C3007.39 2161.17 3007.07 2067.76 3005.36 1975.5C3005.16 1956.04 2991.03 1932.11 2969.13 1933.06C2951.44 1933.82 2917.94 1934.84 2926.83 1905.53C2936.01 1896.43 2965.64 1887.92 2978.85 1883.28C3050.16 1858.23 3113.98 1819.18 3181.36 1785.91Z"
       id="letter-l" />
    <path
       d="M2774.21 1936.23L2780.81 1936.85L2783.22 1940.74C2784.73 2041.61 2740.43 2088.97 2639.82 2091.04C2576.67 2092.34 2543.67 2084.88 2526.19 2017.55C2522.9 1996.47 2523.52 1986.31 2525.62 1965.43C2559.73 1973.06 2589.17 1995.32 2611.13 2022.18C2619.23 2032.09 2625.05 2045.31 2636.23 2052.32C2647.35 2051.12 2662.65 2010.98 2677.5 1996.44C2707.57 1966.99 2733.14 1947.31 2774.21 1936.23Z"
       id="letter-o-tilde" />
    <path
       d="M2614.82 2127.33C2772.59 2108.2 2915.85 2220.95 2934.34 2378.79C2952.83 2536.64 2839.49 2679.44 2681.58 2697.28C2524.56 2715.02 2382.76 2602.48 2364.38 2445.55C2346 2288.61 2457.96 2146.35 2614.82 2127.33ZM2674.69 2634.6C2700.52 2629.53 2722.01 2622.22 2736.42 2598.21C2778.49 2528.13 2773.35 2415.31 2759.16 2337.27C2746.26 2266.37 2703.01 2177.41 2618.76 2186.61C2504.04 2216.46 2514.44 2410.75 2537.86 2497.95C2556.49 2567.33 2594.91 2633.42 2674.69 2634.6Z"
       id="letter-o-base" />
    <path
       d="M2272.48 2157.5C2284.56 2160.85 2292.25 2176.14 2300.01 2187.4C2272.65 2209.58 2256.98 2221.65 2254.6 2259.77C2252.55 2313.61 2251.61 2363.32 2253.1 2417.86C2254.65 2474.55 2246.9 2546.16 2260.69 2600.87C2268.26 2630.91 2313.84 2629.2 2334.72 2637.32C2349.21 2642.95 2341.43 2667.96 2333.85 2677.6C2319.75 2684.34 2259.82 2680.16 2241.38 2679.82C2213.12 2679.54 2184.86 2680.1 2156.63 2681.5C2143.45 2682.55 2123.35 2688.08 2110.89 2682.46C2105.41 2679.99 2104.93 2678.88 2104.31 2673.12C2101.1 2643.02 2108.09 2609.65 2109.75 2579.27C2112.06 2537.12 2114.93 2358.11 2104.49 2326.37C2091.3 2286.31 2064.15 2314.5 2039.82 2302.59C2033.76 2295.3 2032.79 2287.55 2030.34 2278.19C2039.2 2271.61 2051.04 2265.9 2061.42 2262.15C2136.18 2235.16 2203.53 2196.88 2272.48 2157.5Z"
       id="letter-i-base" />
    <path
       d="M2106.36 1989.78C2118.06 1946.54 2159.25 1918.07 2203.83 1922.41C2248.41 1926.75 2283.34 1962.65 2286.46 2007.33C2289.59 2052.01 2260 2092.42 2216.46 2102.92C2172.92 2113.43 2128.16 2090.96 2110.56 2049.78C2102.46 2030.82 2100.98 2009.68 2106.36 1989.78Z"
       id="letter-i-point" />
    <path
       d="M1778.35 2128.96C1930.19 2115.35 1966.32 2229.99 1959.5 2355.13C1957.13 2398.56 1960.4 2445.91 1957.97 2489.99C1956.25 2521.28 1956.64 2564.29 1973.2 2591.51C2007.01 2644.21 2048.29 2592.92 2067.46 2597.62C2075.45 2604.45 2078.72 2612.34 2083.78 2621.66C2024.99 2685.81 1941.82 2721.31 1864.87 2660.48C1847.15 2646.48 1836.28 2631.19 1823.03 2613.24L1819.94 2616.35C1773.89 2662.39 1724.02 2691.88 1657.68 2690.71C1614.09 2689.94 1585.6 2681.52 1554.43 2650.28C1539.92 2634.24 1530.52 2612.58 1527.77 2591.2C1524.65 2565.25 1529.16 2538.95 1540.75 2515.53C1597.55 2401.34 1783.45 2401.78 1811.7 2360.42C1824.13 2342.24 1818.32 2289.6 1814.16 2267.89C1809.54 2243.79 1797.51 2222.1 1776.71 2208.41C1759.7 2197.23 1735.23 2192.55 1715.37 2197.23C1656.26 2211.15 1678.62 2278.2 1653.14 2317.7C1643.64 2332.44 1630.14 2341.6 1612.83 2344.64C1596.97 2347.43 1581.55 2345.44 1568.44 2335.6C1557.46 2327.46 1550.38 2315.1 1548.92 2301.51C1546.29 2274.81 1566.67 2243.2 1583.97 2223.94C1638.4 2163.35 1698.4 2135.21 1778.35 2128.96ZM1696.61 2597.03C1739.25 2618.06 1792.82 2598.28 1812 2557.37C1819.93 2540.45 1821.86 2437.92 1816.29 2421.96C1810.61 2418.91 1813.57 2419.62 1807.07 2419.84C1774.55 2431.73 1749.58 2442.77 1721.55 2464.01C1680.74 2494.95 1647.45 2556.48 1696.61 2597.03Z"
       id="letter-a" />
    <path
       d="M1487.29 2109.81C1489.3 2110.14 1491.5 2110.17 1493.05 2111.52C1532.83 2146.17 1486.61 2152.15 1473.32 2180.51C1469.04 2189.64 1465.72 2213.3 1465.48 2222.93C1462.27 2354.13 1464.84 2485.76 1465.98 2617.02C1466.47 2682.44 1475.99 2761.42 1463.19 2825.46C1455.49 2864.97 1437.57 2901.76 1411.21 2932.17C1356.66 2994.8 1276.61 3024.31 1195.03 3029.34C1118.72 3033.86 1031.35 3023.51 970.898 2972.82C916.352 2927.25 911.061 2838.09 959.632 2785.69C1000.13 2742.01 1073.1 2729.83 1119.66 2772.83C1125.75 2778.47 1134.15 2789.42 1132.7 2799.08C1126.22 2842.17 1081.62 2805.16 1058.88 2833.03C1029.61 2858.35 1030.31 2906.08 1054.7 2935.63C1106.9 2998.85 1224.83 2979.32 1276.57 2926.17C1333.59 2867.61 1325 2781.34 1324.77 2707.5C1321.51 2678.77 1321.41 2606.57 1320.3 2575.18C1309.43 2585.74 1298.4 2596.15 1287.23 2606.4C1186.65 2697.13 1034.23 2685.82 1006.71 2536.45C1001.13 2506.13 1001.52 2476.4 1001.02 2445.7C1000.57 2405.44 1000.5 2365.18 1000.8 2324.91C1000.9 2286.38 1005.4 2237.91 977.602 2207.03C964.969 2192.99 936.823 2181.62 917.95 2186.76C903.994 2190.57 894.822 2196.32 879.496 2195.91C870.87 2191.39 859.848 2174.06 866.447 2167.41C888.611 2146.72 930.416 2138.42 959.325 2135.27C1055.47 2124.78 1143.32 2157.95 1144.28 2268.52C1144.22 2340.42 1143.11 2408.03 1146.11 2480.16C1151.09 2599.78 1295.09 2586.25 1318.64 2490.27C1325.78 2461.17 1320.44 2415.95 1322.03 2385.08C1323.33 2359.96 1322.29 2328.32 1319.19 2303.29C1311.14 2258.15 1285.61 2252.34 1245.94 2261.94C1238.8 2247.2 1228.83 2231.38 1249.65 2223.66C1334.48 2192.19 1408.15 2153.53 1487.29 2109.81Z"
       id="letter-y" />
  </g>
  <g
     id="leaves"
     fill="#5a4fff">
    <path
       d="M2894.07 1748.54C2933.17 1746.2 2961.68 1757.49 2995 1776.37C2942.24 1842.78 2883.74 1876.27 2798.48 1845.05C2793.99 1843.4 2792.22 1841.56 2790.5 1837.37L2798.16 1833.18C2828.84 1826.42 2875.5 1807.89 2904.19 1794.83C2856.99 1800.25 2826.41 1812.35 2781.72 1821.22C2808.72 1777.37 2844.4 1757.03 2894.07 1748.54Z"
       id="leaf-21" />
    <path
       d="M2684.99 1570.7C2727.94 1478.65 2785.3 1457.26 2883.11 1473.62C2878.35 1486.75 2874.16 1497.29 2867.78 1509.22C2836.42 1567.83 2768.02 1606.28 2701.85 1587.16C2699.64 1586.52 2699.23 1585.93 2697.15 1584.48C2718.03 1571.41 2740.44 1560.53 2760.48 1547.07C2775.3 1537.43 2786.21 1529.31 2800.24 1518.47C2785.99 1523.21 2773.65 1529 2759.96 1535.16C2734.86 1546.78 2709.87 1558.63 2684.99 1570.7Z"
       id="leaf-20" />
    <path
       d="M2719.98 1632.82C2763.51 1629.79 2797.27 1632.76 2839.32 1645.35C2808.99 1730.79 2765.64 1801.59 2680.59 1841.65C2622.04 1869.23 2555.24 1877.15 2493.73 1855.06C2523.79 1839.45 2564.53 1811.46 2593.89 1792.29C2620.76 1774.6 2660.27 1746.26 2685.17 1725.82C2617.17 1750.23 2542.27 1793.19 2479.16 1828.22C2508.3 1710.86 2602.65 1643.77 2719.98 1632.82Z"
       id="leaf-19" />
    <path
       d="M2435.86 1605.58C2431.63 1427.71 2555.04 1327.56 2725.66 1315.64C2726.41 1398.55 2700.88 1483.7 2642.15 1544.09C2594.23 1593.17 2528.79 1621.22 2460.2 1622.08C2459.58 1622.08 2458.96 1622.07 2458.34 1622.07C2491.18 1587.15 2560.56 1509.16 2585.39 1468.34C2593.87 1458.9 2599.94 1448.84 2606.91 1438.24C2596 1446.89 2587.69 1454.52 2577.48 1464.03C2524.06 1511.39 2482.04 1551.45 2435.86 1605.58Z"
       id="leaf-18" />
    <path
       d="M2441.37 1370.6C2439.73 1355.8 2437.81 1341.06 2437.75 1326.17C2437.48 1253.35 2495.67 1207.6 2555.4 1179.23C2578.47 1268.25 2545.67 1349.93 2454.32 1379.3C2469.12 1352.66 2485.16 1324.91 2498.01 1297.43L2514.15 1260.23C2503.25 1271.5 2496.42 1281.58 2487.26 1294.35C2470.42 1320.76 2455.85 1342.93 2441.37 1370.6Z"
       id="leaf-17" />
    <path
       d="M2280.43 1849.5C2287.57 1810.17 2308.26 1775 2341.61 1752.49C2380.25 1726.39 2416.85 1724.84 2461.55 1726.98C2452.8 1773.3 2432.33 1815.63 2392.32 1842.52C2364.36 1861.32 2323.11 1872.25 2289.95 1864.8C2310.5 1849.48 2333.39 1832.51 2351.85 1814.81C2363.34 1805.62 2372.47 1796.25 2382.9 1785.91C2371.12 1791.13 2357.71 1798.61 2347.46 1806.38C2324.36 1819.58 2302.53 1834.69 2280.43 1849.5Z"
       id="leaf-16" />
    <path
       d="M2225.56 1723.36C2226.27 1626.48 2276.83 1573.97 2371.8 1556.91C2369.17 1654.68 2338.78 1719.27 2235.29 1739.09C2251.66 1718.07 2268.56 1696.92 2283.98 1675.22C2294.22 1660.73 2303.26 1645.44 2311.03 1629.49C2300.62 1640.21 2288.33 1652.25 2279.27 1663.88C2261.77 1682.07 2242.03 1707.39 2225.56 1723.36Z"
       id="leaf-15" />
    <path
       d="M2173.53 1556.18C2126.79 1378.39 2221.68 1269.53 2379.54 1205.06C2398.58 1290.94 2402.26 1380.67 2353.38 1457.89C2317.76 1513.46 2262.58 1553.65 2198.76 1570.5C2225.14 1518.02 2251.73 1468.52 2275.29 1414.39C2283.34 1395.26 2291.29 1377.36 2297.2 1357.4C2285.09 1373.84 2273.57 1390.7 2262.65 1407.95C2228.69 1458.65 2200.67 1501.55 2173.53 1556.18Z"
       id="leaf-14" />
    <path
       d="M2279.56 1046.55C2310.34 1131.68 2304.38 1210.27 2216.24 1256.04C2221.17 1241.67 2229.99 1218.53 2233.8 1204.65C2242.12 1180.94 2248.15 1156.49 2251.82 1131.63C2243.01 1148.33 2234.28 1165.31 2228.57 1183.37C2219.03 1202.33 2208.26 1228.76 2200.83 1248.89C2167.98 1159.52 2200.61 1095.12 2279.56 1046.55Z"
       id="leaf-13" />
    <path
       d="M2054.33 1477.46C2055.67 1478.11 2057.7 1479.71 2058.74 1480.81C2148.93 1576.85 2187.38 1725.76 2103.79 1838.74C2093.58 1852.54 2082.36 1864.29 2070.18 1876.82C2071.74 1817.6 2068.18 1762.73 2061.84 1703.87C2060.19 1688.5 2058.76 1661.2 2055.01 1647.1C2052.34 1655.2 2050.48 1679.63 2049.4 1689.45C2042.5 1752.61 2040.45 1815.09 2039.59 1878.57C1930.81 1771.5 1937.94 1628.2 2026.39 1511.75C2035.59 1499.64 2044.36 1488.96 2054.33 1477.46Z"
       id="leaf-12" />
    <path
       d="M2053.74 1031.15C2056.38 1032.4 2057.62 1033.14 2059.7 1035.26C2154.61 1132 2188.29 1281.28 2100.52 1394.21C2091.29 1406.08 2080.74 1416.28 2069.91 1426.94C2072.7 1352.41 2064.52 1281.77 2056.52 1207.84L2054.56 1208.26C2044.03 1280.86 2039.06 1354.17 2039.72 1427.52C1914.11 1306.69 1943.15 1150.59 2053.74 1031.15Z"
       id="leaf-11" />
    <path
       d="M1829.21 1046.95C1908.22 1093.69 1946.01 1162.2 1907.47 1250.85C1893.45 1210.42 1881.69 1180.38 1863.88 1141.5L1862.46 1140.16L1860.61 1140.55C1861.76 1163.17 1883.47 1232.19 1890.94 1255.42C1805.65 1208.77 1798.83 1131.17 1829.21 1046.95Z"
       id="leaf-10" />
    <path
       d="M1731.6 1205.1C1890.61 1261.79 1978.06 1385.42 1936.46 1554.39C1897.74 1485.8 1862.52 1431.88 1818.11 1367.24L1816.23 1366.49L1814.94 1368.27C1843.56 1442.82 1871.9 1499.84 1908.88 1570.08C1813.84 1545.56 1742.22 1472.1 1723.39 1376.49C1710.95 1313.28 1715.99 1266.56 1731.6 1205.1Z"
       id="leaf-09" />
    <path
       d="M1738.03 1556.75C1834.57 1580 1882.71 1622.61 1883.9 1725.61L1862.95 1701.79C1842.12 1679.58 1819.84 1655.44 1797.84 1634.42C1815.62 1667.14 1832.24 1687.75 1853.51 1717.17C1858.49 1724.2 1864.05 1731.27 1869.3 1738.15C1764.2 1723.91 1742.22 1649.64 1738.03 1556.75Z"
       id="leaf-08" />
    <path
       d="M1646.21 1726.23C1748.67 1724.85 1798.68 1749.35 1830.32 1849.33C1806.27 1833.58 1782.11 1818 1757.84 1802.59C1746.21 1794.24 1739.05 1790.44 1726.32 1783.7C1734.51 1792.12 1742.92 1801.3 1751.97 1808.67C1770.74 1827.77 1798.3 1849.49 1819.47 1866.19C1715.75 1872.59 1672.11 1820.04 1646.21 1726.23Z"
       id="leaf-07" />
    <path
       d="M1731.73 1930.84C1772.32 1927.65 1810.83 1950.77 1840.24 1976.14C1802.37 1976.22 1751.59 1976.28 1714.69 1984.11C1754.64 1987.58 1796.36 1992.87 1836.5 1996.99L1815.13 2013.02C1740.5 2059.02 1676.59 2041.62 1614.36 1986C1650.75 1953.56 1682.91 1934.59 1731.73 1930.84Z"
       id="leaf-06" />
    <path
       d="M1553.11 1179.76C1589.71 1195.77 1622.54 1214.96 1645.95 1248.12C1675.76 1290.35 1674.54 1320.99 1666.68 1369.21C1647.05 1333.17 1627.98 1300.32 1602.53 1267.89L1601.13 1270.17C1607.87 1294.88 1640.4 1356.72 1652.95 1379.89C1562.77 1344.66 1532.36 1271.74 1553.11 1179.76Z"
       id="leaf-05" />
    <path
       d="M1382.36 1315.47C1391.55 1316.61 1400.76 1317.77 1409.93 1319.03C1565.2 1340.51 1681.38 1437.65 1672.05 1602.82C1633.12 1555.87 1589.92 1512.64 1542.99 1473.7C1529.29 1461.99 1515.47 1450.41 1501.55 1438.97L1526.66 1473.63C1565.89 1524.21 1606.28 1573.88 1647.79 1622.6C1470.71 1608.11 1389.45 1483.7 1382.36 1315.47Z"
       id="leaf-04" />
    <path
       d="M1353.7 1630.93C1402.88 1627.79 1470.24 1644.65 1512.53 1669.84C1574.79 1706.92 1610.1 1756.98 1628.84 1825.67C1619.63 1820.8 1609.98 1815.34 1600.92 1810.11C1543.25 1776.81 1483.38 1750.66 1422.14 1724.77C1444.1 1743.01 1470.78 1761.39 1494.22 1778.2C1537.73 1807.27 1571.44 1828.3 1617.05 1854.14C1560.91 1875.05 1489.8 1867.69 1435.75 1844.08C1343.8 1803.91 1304 1733.66 1268.34 1646.06C1298.89 1636.67 1322.02 1632.44 1353.7 1630.93Z"
       id="leaf-03" />
    <path
       d="M1258.09 1468.67C1342.87 1463.66 1389.26 1497.3 1425.53 1571.23C1384.16 1551.55 1352.03 1534.72 1308.77 1518.14C1318.29 1526.01 1329.02 1533.11 1339.2 1540.19C1363.07 1555.93 1388.31 1571.36 1412.61 1586.5C1319.58 1608.74 1257.35 1558.86 1226.4 1473.78C1236.49 1471.88 1247.86 1470.3 1258.09 1468.67Z"
       id="leaf-02" />
    <path
       d="M1108.27 1987.34C1229.16 1876.09 1397.77 1849.8 1521.18 1972.13C1480.48 1966.79 1390.22 1974.63 1349.39 1978.15C1330.94 1980 1300.3 1982.17 1283.11 1986.14C1304.44 1987.57 1325.74 1989.44 1346.98 1991.77C1407.51 1997.64 1457.8 2002.61 1518.37 2002.36C1473.22 2051.55 1410.12 2080.44 1343.38 2082.47C1252.99 2085.54 1173.36 2047.91 1108.27 1987.34Z"
       id="leaf-01" />
    <path
       d="M1186.84 1748.63C1254.12 1744.24 1289.49 1769.87 1327.02 1822.36C1284 1810.06 1247.15 1799.39 1202.31 1794.68C1225.55 1805.31 1253.92 1815.29 1278.19 1824.4L1319.3 1838.53C1231.08 1879.98 1166.65 1847.87 1111.18 1774.77C1138.39 1759.58 1155.91 1753.02 1186.84 1748.63Z"
       id="leaf-00" />
  </g>
</svg>
